<svg width="1526" height="1526" viewBox="0 0 526 526" fill="none" xmlns="http://www.w3.org/2000/svg">
<path d="M182.664 35.8557H325.331L177.229 474.666C175.707 479.175 172.809 483.093 168.943 485.869C165.077 488.644 160.439 490.138 155.68 490.139H44.6497C41.0439 490.139 37.4898 489.281 34.2815 487.635C31.0732 485.99 28.3028 483.604 26.1996 480.675C24.0964 477.746 22.7207 474.358 22.1865 470.792C21.6523 467.226 21.9749 463.584 23.1275 460.168L161.109 51.3288C162.631 46.8178 165.529 42.8979 169.396 40.121C173.263 37.3442 177.904 35.8504 182.664 35.8502V35.8557Z" fill="url(#paint0_linear)"/>
<path d="M389.98 330.18H163.745C161.642 330.178 159.586 330.809 157.847 331.991C156.107 333.174 154.764 334.853 153.993 336.809C153.221 338.766 153.057 340.91 153.521 342.961C153.985 345.012 155.056 346.877 156.595 348.311L301.968 483.997C306.2 487.945 311.773 490.14 317.562 490.139H445.664L389.98 330.18Z" fill="#3C3C3C"/>
<path d="M182.664 35.8557C177.852 35.8372 173.159 37.358 169.273 40.196C165.386 43.034 162.508 47.0405 161.06 51.6302L23.2974 459.795C22.0672 463.224 21.681 466.899 22.1715 470.509C22.6619 474.119 24.0145 477.557 26.115 480.534C28.2154 483.51 31.0018 485.937 34.2385 487.609C37.4753 489.281 41.067 490.149 44.71 490.139H158.605C162.847 489.381 166.812 487.511 170.095 484.719C173.377 481.927 175.86 478.314 177.289 474.249L204.762 393.284L302.894 484.813C307.006 488.215 312.165 490.095 317.501 490.139H445.128L389.152 330.18L225.977 330.218L325.846 35.8557H182.664Z" fill="url(#paint1_linear)"/>
<path d="M364.885 51.3069C363.366 46.8032 360.472 42.8898 356.611 40.1178C352.75 37.3458 348.116 35.8551 343.363 35.8557H184.363C189.116 35.856 193.749 37.347 197.61 40.1188C201.471 42.8907 204.365 46.8037 205.885 51.3069L343.873 460.162C345.026 463.58 345.349 467.222 344.816 470.789C344.282 474.356 342.907 477.745 340.803 480.675C338.7 483.605 335.929 485.992 332.721 487.638C329.512 489.285 325.957 490.144 322.35 490.144H481.356C484.962 490.143 488.516 489.284 491.724 487.637C494.932 485.99 497.702 483.602 499.805 480.673C501.907 477.743 503.282 474.355 503.816 470.788C504.349 467.221 504.026 463.579 502.872 460.162L364.885 51.3069Z" fill="url(#paint2_linear)"/>
<defs>
<linearGradient id="paint0_linear" x1="234.662" y1="69.5197" x2="86.4995" y2="507.228" gradientUnits="userSpaceOnUse">
<stop stop-color="#0E0E0E"/>
<stop offset="1" stop-color="#3C3C3C"/>
</linearGradient>
<linearGradient id="paint1_linear" x1="280.944" y1="273.504" x2="246.672" y2="285.092" gradientUnits="userSpaceOnUse">
<stop stop-opacity="0.3"/>
<stop offset="0.071" stop-opacity="0.2"/>
<stop offset="0.321" stop-opacity="0.1"/>
<stop offset="0.623" stop-opacity="0.05"/>
<stop offset="1" stop-opacity="0"/>
</linearGradient>
<linearGradient id="paint2_linear" x1="262.096" y1="56.7532" x2="424.734" y2="490.051" gradientUnits="userSpaceOnUse">
<stop stop-color="#606060"/>
<stop offset="1" stop-color="#464646"/>
</linearGradient>
</defs>
</svg>
